<svg aria-hidden="true" style="position: absolute; width: 0; height: 0; overflow: hidden;" version="1.1" xmlns="http://www.w3.org/2000/svg" xmlns:xlink="http://www.w3.org/1999/xlink">
<defs>
<symbol id="burger-icon" viewBox="0 0 44 32">
<path d="M0.668 30.054v-2.667h42.667v2.667h-42.667zM0.668 17.334v-2.667h42.667v2.667h-42.667zM0.668 4.614v-2.667h42.667v2.667h-42.667z"></path>
</symbol>
<symbol id="icon-noonespillow_Simple_Cloud-2" viewBox="0 0 140 32">
<path fill="#7fb3ff" style="fill: var(--color1, #7fb3ff)" opacity="0.3" d="M65.638 0c-3.95 0-7.436 0.801-9.517 2.026-0.426-0.020-0.858-0.034-1.297-0.035h-0.069c-3.844 0-7.25 0.76-9.348 1.93-0.786 0.058-1.565 0.117-2.337 0.181-1.781-0.464-3.905-0.738-6.179-0.743h-0.060c-2.296 0-4.44 0.275-6.239 0.743-1.137-0.155-2.36-0.24-3.625-0.243h-0.059c-5.155 0-9.532 1.366-11.012 3.255-4.992 0.189-9.062 1.666-10.161 3.602-3.413 0.805-5.71 2.298-5.734 4.010-0.014 1 0.746 1.93 2.060 2.693-0.298 0.41-0.459 0.842-0.465 1.29-0.033 2.333 4.181 4.283 9.705 4.642-0.063 0.193-0.096 0.39-0.099 0.589-0.037 2.578 5.106 4.681 11.478 4.696 3.041 0.007 5.809-0.463 7.883-1.237 0.825 0.115 1.664 0.228 2.515 0.335 2.069 1.215 5.527 2.013 9.448 2.022 2.096 0.005 4.063-0.217 5.763-0.609 0.223 0.014 0.45 0.025 0.674 0.038 2.062 0.809 4.865 1.31 7.962 1.317 2.386 0.006 4.609-0.284 6.457-0.782 0.625 0.009 1.252 0.018 1.882 0.023 2.102 1.063 5.329 1.748 8.952 1.757 4.074 0.009 7.662-0.84 9.735-2.126 1.49-0.073 2.958-0.154 4.407-0.247 1.505 0.438 3.282 0.733 5.209 0.836 2.067 1.221 5.526 2.025 9.458 2.034 5.208 0.012 9.639-1.375 11.101-3.29 0.557 0.035 1.123 0.053 1.704 0.054 0.199 0 0.397-0.004 0.594-0.008s0.39-0.008 0.584-0.015c3.918-0.152 7.278-1.099 9.061-2.438 0.726 0.060 1.48 0.091 2.248 0.092 6.371 0.015 11.57-2.064 11.606-4.642 0.021-1.463-1.625-2.774-4.219-3.636 1.239-0.739 1.967-1.629 1.981-2.589 0.020-1.425-1.543-2.705-4.021-3.567 0.113-0.257 0.174-0.52 0.179-0.79 0.036-2.578-5.107-4.685-11.478-4.7h-0.069c-2.305 0-4.446 0.276-6.249 0.747-0.276-0.058-0.55-0.116-0.832-0.173-1.612-1.778-5.822-3.051-10.775-3.063h-0.069c-2.061 0-3.99 0.218-5.665 0.601-1.087-2.109-5.692-3.701-11.23-3.713h-0.069c-3.571 0-6.765 0.656-8.883 1.687-1.010-0.223-2.113-0.385-3.278-0.478-2.057-1.247-5.555-2.071-9.537-2.080h-0.069z"></path>
<path fill="#e9e4c7" style="fill: var(--color2, #e9e4c7)" opacity="0.6" d="M65.834 1.342c-3.771 0-7.098 0.733-9.085 1.856-0.407-0.019-0.819-0.031-1.238-0.032h-0.066c-3.669 0-6.921 0.696-8.925 1.768-0.751 0.053-1.494 0.108-2.231 0.166-1.7-0.425-3.728-0.676-5.899-0.681h-0.056c-2.193 0-4.239 0.252-5.956 0.681-1.085-0.142-2.253-0.22-3.46-0.222h-0.057c-4.921 0-9.099 1.251-10.513 2.982-4.765 0.173-8.65 1.526-9.7 3.3-3.258 0.737-5.451 2.105-5.474 3.674-0.014 0.916 0.712 1.768 1.966 2.467-0.285 0.376-0.438 0.771-0.444 1.182-0.032 2.137 3.991 3.924 9.265 4.253-0.060 0.177-0.092 0.357-0.095 0.54-0.035 2.361 4.875 4.288 10.957 4.302 2.903 0.006 5.546-0.424 7.525-1.133 0.787 0.105 1.589 0.209 2.402 0.307 1.975 1.113 5.276 1.844 9.019 1.853 2.001 0.004 3.879-0.199 5.502-0.558 0.213 0.013 0.429 0.023 0.643 0.035 1.969 0.741 4.644 1.2 7.601 1.207 2.278 0.005 4.4-0.26 6.164-0.716 0.596 0.008 1.195 0.016 1.796 0.021 2.006 0.974 5.087 1.602 8.546 1.609 3.89 0.009 7.314-0.77 9.293-1.948 1.422-0.067 2.824-0.141 4.207-0.226 1.437 0.402 3.133 0.671 4.973 0.766 1.974 1.118 5.275 1.855 9.029 1.863 4.972 0.011 9.202-1.26 10.598-3.014 0.531 0.032 1.072 0.048 1.626 0.049 0.19 0 0.38-0.004 0.567-0.007s0.373-0.007 0.558-0.014c3.741-0.139 6.947-1.007 8.65-2.234 0.693 0.055 1.412 0.083 2.146 0.085 6.082 0.014 11.045-1.891 11.080-4.253 0.020-1.34-1.552-2.541-4.027-3.331 1.183-0.677 1.878-1.492 1.891-2.372 0.019-1.305-1.473-2.478-3.838-3.268 0.107-0.236 0.167-0.476 0.17-0.723 0.035-2.361-4.875-4.292-10.957-4.305h-0.066c-2.2 0-4.245 0.253-5.966 0.685-0.264-0.053-0.525-0.107-0.794-0.159-1.538-1.628-5.558-2.795-10.286-2.806h-0.066c-1.967 0-3.809 0.2-5.408 0.551-1.037-1.932-5.434-3.39-10.721-3.402h-0.066c-3.409 0-6.458 0.601-8.48 1.546-0.964-0.204-2.018-0.352-3.129-0.438-1.964-1.142-5.303-1.897-9.104-1.906h-0.066z"></path>
<path fill="#e9e4c7" style="fill: var(--color2, #e9e4c7)" opacity="0.2" d="M65.834 1.342c-3.771 0-7.098 0.733-9.085 1.856-0.407-0.019-0.819-0.031-1.238-0.032h-0.066c-3.669 0-6.921 0.696-8.925 1.768-0.751 0.053-1.494 0.108-2.231 0.166-1.7-0.425-3.728-0.676-5.899-0.681h-0.056c-2.193 0-4.239 0.252-5.956 0.681-1.085-0.142-2.253-0.22-3.46-0.222h-0.057c-4.921 0-9.099 1.251-10.513 2.982-4.765 0.173-8.65 1.526-9.7 3.3-3.258 0.737-5.451 2.105-5.474 3.674-0.014 0.916 0.712 1.768 1.966 2.467-0.285 0.376-0.438 0.771-0.444 1.182-0.032 2.137 3.991 3.924 9.265 4.253-0.060 0.177-0.092 0.357-0.095 0.54-0.035 2.361 4.875 4.288 10.957 4.302 2.903 0.006 5.546-0.424 7.525-1.133 0.787 0.105 1.589 0.209 2.402 0.307 1.975 1.113 5.276 1.844 9.019 1.853 2.001 0.004 3.879-0.199 5.502-0.558 0.213 0.013 0.429 0.023 0.643 0.035 1.969 0.741 4.644 1.2 7.601 1.207 2.278 0.005 4.4-0.26 6.164-0.716 0.596 0.008 1.195 0.016 1.796 0.021 2.006 0.974 5.087 1.602 8.546 1.609 3.89 0.009 7.314-0.77 9.293-1.948 1.422-0.067 2.824-0.141 4.207-0.226 1.437 0.402 3.133 0.671 4.973 0.766 1.974 1.118 5.275 1.855 9.029 1.863 4.972 0.011 9.202-1.26 10.598-3.014 0.531 0.032 1.072 0.048 1.626 0.049 0.19 0 0.38-0.004 0.567-0.007s0.373-0.007 0.558-0.014c3.741-0.139 6.947-1.007 8.65-2.234 0.693 0.055 1.412 0.083 2.146 0.085 6.082 0.014 11.045-1.891 11.080-4.253 0.020-1.34-1.552-2.541-4.027-3.331 1.183-0.677 1.878-1.492 1.891-2.372 0.019-1.305-1.473-2.478-3.838-3.268 0.107-0.236 0.167-0.476 0.17-0.723 0.035-2.361-4.875-4.292-10.957-4.305h-0.066c-2.2 0-4.245 0.253-5.966 0.685-0.264-0.053-0.525-0.107-0.794-0.159-1.538-1.628-5.558-2.795-10.286-2.806h-0.066c-1.967 0-3.809 0.2-5.408 0.551-1.037-1.932-5.434-3.39-10.721-3.402h-0.066c-3.409 0-6.458 0.601-8.48 1.546-0.964-0.204-2.018-0.352-3.129-0.438-1.964-1.142-5.303-1.897-9.104-1.906h-0.066z"></path>
</symbol>
</defs>
</svg>
